<svg xmlns="http://www.w3.org/2000/svg" viewBox="0 0 368.55 136.23"><defs><style>.cls-1,.cls-4{font-size:103.75px;font-family:ReemKufi-Regular, Reem Kufi;}.cls-1,.cls-2{fill:#1f1e2e;}.cls-1{letter-spacing:-0.17em;}.cls-3,.cls-4{fill:#cc0960;}</style></defs><g id="Layer_3" data-name="Layer 3"><text class="cls-1" transform="translate(111.22 111.44) scale(1.05 1)">KRAM</text><path class="cls-2" d="M219,262.16H202V172.94c.64.32,1.23.44,1.54.81q9.69,11.33,19.33,22.71l23.33,27.43c.17.2.32.43.54.71l5.79-6.79,24.05-28.17q6.72-7.89,13.43-15.8a1.4,1.4,0,0,1,1.72-.56v34l55.88-56.83.13.12-73,83.91v-17l-.22-.09-27.71,33.3L219,217.17Z" transform="translate(-201.98 -150.43)"/><path class="cls-3" d="M279.28,240.08c26.8-30.53,19.34-22.19,45.92-53.55v75.33H308.27V212.74c-21.92,21.44-8.73,8.56-28.83,27.47Z" transform="translate(-201.98 -150.43)"/><path class="cls-3" d="M308.36,186.34s-2.92-20.55,16.84-18.43" transform="translate(-201.98 -150.43)"/><text class="cls-4" transform="translate(220.69 111.44) scale(1.05 1)">A</text></g></svg>