<?xml version="1.0" encoding="UTF-8"?>
<svg id="Layer_1" data-name="Layer 1" xmlns="http://www.w3.org/2000/svg" viewBox="0 0 155.48 76.98">
  <defs>
    <style>
      .cls-1 {
        fill: #fff;
      }

      .cls-2 {
        font-family: Impact, Impact;
        font-size: 49.74px;
      }

      .cls-2, .cls-3 {
        fill: #cb1d61;
      }

      .cls-4 {
        fill: none;
        stroke: #cb1d61;
        stroke-miterlimit: 10;
        stroke-width: 12px;
      }

      .cls-5 {
        fill: #231f20;
      }
    </style>
  </defs>
  <g>
    <ellipse class="cls-1" cx="35.68" cy="36.4" rx="20.25" ry="11.15"/>
    <ellipse class="cls-4" cx="35.68" cy="36.4" rx="20.25" ry="11.15"/>
  </g>
  <path class="cls-5" d="m152.48,20.36c1.65,0,3,1.35,3,3v35.09c0,1.65-1.35,3-3,3h-11.99c-1.65,0-3.67-1.17-4.49-2.6l-7.7-13.47c-.82-1.43-1.49-1.25-1.49.4v12.68c0,1.65-1.35,3-3,3h-11.16c-1.65,0-3-1.35-3-3V23.36c0-1.65,1.35-3,3-3h11.16c1.65,0,3.71,1.15,4.58,2.55l8.34,13.41c.87,1.4,1.58,1.2,1.58-.45v-12.5c0-1.65,1.35-3,3-3h11.16Z"/>
  <text class="cls-2" transform="translate(82.03 60.54) scale(1.4 1)"><tspan x="0" y="0">S</tspan></text>
  <rect class="cls-1" x="100.13" y="30.1" width="1.65" height="18.26"/>
  <rect class="cls-1" x="101.58" y="30.65" width="13.89" height=".82"/>
  <rect class="cls-5" y="20.34" width="16.2" height="41.08" rx="3" ry="3"/>
  <rect class="cls-1" x="27.58" width="16.2" height="35.89"/>
  <rect class="cls-3" x="72.61" y="25.59" width="9.13" height="32.41" transform="translate(35.37 118.96) rotate(-90)"/>
  <rect class="cls-5" x="55.16" y="20.34" width="16.2" height="41.08" rx="3" ry="3"/>
  <rect class="cls-5" x="82.03" y="20.34" width="16.2" height="41.08" rx="3" ry="3"/>
</svg>